<svg width="382" height="280" viewBox="0 0 382 280" fill="none" xmlns="http://www.w3.org/2000/svg">
<rect width="381" height="280" transform="translate(0.15918)" fill="black"/>
<path d="M112.413 93.833C107.243 100.503 102.253 106.923 97.3433 113.263C92.0133 109.803 87.0733 106.153 81.7433 103.233C75.1433 99.623 68.0633 98.233 60.6233 100.913C56.3033 102.463 53.6033 105.303 53.1333 109.943C52.6633 114.543 55.0433 117.753 58.9633 119.493C68.9633 123.933 79.1133 128.053 89.1833 132.353C106.193 139.613 113.973 150.513 113.843 166.803C113.693 184.723 102.103 198.843 82.1433 203.203C57.6433 208.563 37.3333 200.323 20.6133 181.283C26.1033 174.663 31.5933 168.043 37.3733 161.073C38.8533 162.863 40.1633 164.493 41.5133 166.073C50.6033 176.723 61.7733 181.943 75.9933 179.363C82.5033 178.183 86.7133 174.603 87.4633 169.283C88.2433 163.783 85.9733 159.983 79.3933 157.043C70.9033 153.263 62.1733 150.023 53.6833 146.253C42.9933 141.503 33.3433 135.403 29.0233 123.673C21.4133 103.033 34.7033 80.863 57.3833 76.263C76.5033 72.363 98.4633 79.303 112.413 93.833Z" fill="white"/>
<path d="M303.487 116.083L353.039 201.928H253.934L303.487 116.083Z" fill="#DA7151"/>
<path d="M189.05 116.083L238.603 201.928H139.498L189.05 116.083Z" fill="#DA7151"/>
<path d="M246.891 163.917L197.339 78.0723L296.444 78.0723L246.891 163.917Z" fill="#DA7151"/>
</svg>
