<?xml version="1.0" encoding="iso-8859-1"?>
<!-- Uploaded to: SVG Repo, www.svgrepo.com, Generator: SVG Repo Mixer Tools -->
<svg height="800px" width="800px" version="1.1" id="Layer_1" xmlns="http://www.w3.org/2000/svg" xmlns:xlink="http://www.w3.org/1999/xlink" 
	 viewBox="0 0 512 512" xml:space="preserve">
<path style="fill:#507C5C;" d="M256,462.395c-113.807,0-206.395-92.589-206.395-206.395S142.193,49.605,256,49.605
	c113.805,0,206.395,92.589,206.395,206.395c0,32.981-7.551,64.503-22.443,93.688c-14.2,27.826-34.928,52.487-59.952,71.32
	c-6.365,4.789-15.399,3.512-20.188-2.85c-4.788-6.362-3.512-15.401,2.85-20.188c45.06-33.911,70.902-85.657,70.902-141.97
	c0-97.909-79.654-177.563-177.563-177.563S78.439,158.091,78.439,256s79.654,177.563,177.563,177.563
	c7.96,0,14.416,6.455,14.416,14.416S263.962,462.395,256,462.395z"/>
<circle style="fill:#CFF09E;" cx="255.999" cy="255.999" r="96.832"/>
<g>
	<path style="fill:#507C5C;" d="M256,367.249c-61.343,0-111.249-49.907-111.249-111.249S194.657,144.751,256,144.751
		S367.249,194.657,367.249,256S317.343,367.249,256,367.249z M256,173.583c-45.445,0-82.417,36.971-82.417,82.417
		s36.973,82.417,82.417,82.417s82.417-36.971,82.417-82.417S301.445,173.583,256,173.583z"/>
	<path style="fill:#507C5C;" d="M256,512c-7.962,0-14.416-6.455-14.416-14.416v-47.806c0-7.961,6.454-14.416,14.416-14.416
		c7.96,0,14.416,6.455,14.416,14.416v47.806C270.416,505.546,263.962,512,256,512z"/>
	<path style="fill:#507C5C;" d="M256,76.638c-7.962,0-14.416-6.455-14.416-14.416V14.416C241.584,6.455,248.038,0,256,0
		c7.96,0,14.416,6.455,14.416,14.416v47.806C270.416,70.184,263.962,76.638,256,76.638z"/>
	<path style="fill:#507C5C;" d="M62.224,270.416H14.416C6.454,270.416,0,263.96,0,256s6.454-14.416,14.416-14.416h47.808
		c7.962,0,14.416,6.455,14.416,14.416S70.186,270.416,62.224,270.416z"/>
	<path style="fill:#507C5C;" d="M497.584,270.416h-47.806c-7.961,0-14.416-6.455-14.416-14.416s6.455-14.416,14.416-14.416h47.806
		c7.961,0,14.416,6.455,14.416,14.416S505.546,270.416,497.584,270.416z"/>
</g>
</svg>