<svg xmlns="http://www.w3.org/2000/svg"  viewBox="0 0 48 48" width="48px" height="48px"><linearGradient id="SVGID_1_" x1="39.328" x2="8.672" y1="8.672" y2="39.328" gradientUnits="userSpaceOnUse"><stop offset="0" stop-color="#60affe"/><stop offset=".033" stop-color="#6ab4fe"/><stop offset=".197" stop-color="#97cbfe"/><stop offset=".362" stop-color="#bddeff"/><stop offset=".525" stop-color="#daecff"/><stop offset=".687" stop-color="#eef7ff"/><stop offset=".846" stop-color="#fbfdff"/><stop offset="1" stop-color="#fff"/></linearGradient><path fill="url(#SVGID_1_)" d="M36.5,40.5h-25c-2.209,0-4-1.791-4-4v-25c0-2.209,1.791-4,4-4h25c2.209,0,4,1.791,4,4v25	C40.5,38.709,38.709,40.5,36.5,40.5z"/><path fill="none" stroke="#2e9bfe" stroke-linecap="round" stroke-linejoin="round" stroke-width="3" d="M40.5,31.5v5c0,2.209-1.791,4-4,4h-25c-2.209,0-4-1.791-4-4V26"/><path fill="none" stroke="#2e9bfe" stroke-linecap="round" stroke-linejoin="round" stroke-width="3" d="M7.5,18.064V11.5c0-2.209,1.791-4,4-4h25c2.209,0,4,1.791,4,4v11.33"/><path fill="#2e9bfe" d="M34.257,34H27.82L13.829,14h6.437L34.257,34z M28.587,32.304h2.563L19.499,15.696h-2.563L28.587,32.304z"/><polygon fill="#2e9bfe" points="15.866,34 23.069,25.656 22.127,24.407 13.823,34"/><polygon fill="#2e9bfe" points="24.45,21.721 25.355,23.01 33.136,14 31.136,14"/></svg>